<svg width="98" height="25" viewBox="0 0 98 25" fill="none" xmlns="http://www.w3.org/2000/svg">
<path d="M2.40674 12.042V19H0.0629883V1.22656H6.61816C8.56315 1.22656 10.085 1.72298 11.1836 2.71582C12.2904 3.70866 12.8438 5.02295 12.8438 6.65869C12.8438 8.38395 12.3026 9.71452 11.2202 10.6504C10.146 11.5781 8.60384 12.042 6.59375 12.042H2.40674ZM2.40674 10.1255H6.61816C7.87142 10.1255 8.83171 9.83252 9.49902 9.24658C10.1663 8.65251 10.5 7.79801 10.5 6.68311C10.5 5.62516 10.1663 4.77881 9.49902 4.14404C8.83171 3.50928 7.91618 3.17969 6.75244 3.15527H2.40674V10.1255ZM24.3647 7.81836C24.0229 7.76139 23.6527 7.73291 23.2539 7.73291C21.7728 7.73291 20.7677 8.36361 20.2388 9.625V19H17.9805V5.79199H20.1777L20.2144 7.31787C20.9549 6.13786 22.0047 5.54785 23.3638 5.54785C23.8032 5.54785 24.1369 5.60482 24.3647 5.71875V7.81836ZM28.1099 12.2739C28.1099 10.98 28.3621 9.81624 28.8667 8.78271C29.3794 7.74919 30.0874 6.95166 30.9907 6.39014C31.9022 5.82861 32.9398 5.54785 34.1035 5.54785C35.902 5.54785 37.3547 6.17041 38.4614 7.41553C39.5763 8.66064 40.1338 10.3167 40.1338 12.3838V12.5425C40.1338 13.8283 39.8856 14.9839 39.3892 16.0093C38.9009 17.0265 38.1969 17.82 37.2773 18.3896C36.3659 18.9593 35.3161 19.2441 34.1279 19.2441C32.3376 19.2441 30.8849 18.6216 29.77 17.3765C28.6632 16.1313 28.1099 14.4834 28.1099 12.4326V12.2739ZM30.3804 12.5425C30.3804 14.0073 30.7181 15.1833 31.3936 16.0703C32.0771 16.9574 32.9886 17.4009 34.1279 17.4009C35.2754 17.4009 36.1868 16.9533 36.8623 16.0581C37.5378 15.1548 37.8755 13.8934 37.8755 12.2739C37.8755 10.8254 37.5296 9.65348 36.8379 8.7583C36.1543 7.85498 35.2428 7.40332 34.1035 7.40332C32.9886 7.40332 32.0894 7.84684 31.4058 8.73389C30.7222 9.62093 30.3804 10.8905 30.3804 12.5425ZM58.1001 3.15527H52.3872V19H50.0557V3.15527H44.355V1.22656H58.1001V3.15527ZM65.3364 19H63.0781V5.79199H65.3364V19ZM62.895 2.28857C62.895 1.92236 63.0049 1.61312 63.2246 1.36084C63.4525 1.10856 63.7861 0.982422 64.2256 0.982422C64.665 0.982422 64.9987 1.10856 65.2266 1.36084C65.4544 1.61312 65.5684 1.92236 65.5684 2.28857C65.5684 2.65479 65.4544 2.95996 65.2266 3.2041C64.9987 3.44824 64.665 3.57031 64.2256 3.57031C63.7861 3.57031 63.4525 3.44824 63.2246 3.2041C63.0049 2.95996 62.895 2.65479 62.895 2.28857ZM82.6191 12.5425C82.6191 14.5526 82.1593 16.172 81.2397 17.4009C80.3201 18.6297 79.075 19.2441 77.5044 19.2441C75.9012 19.2441 74.6398 18.7355 73.7202 17.7183V24.0781H71.4619V5.79199H73.5249L73.6348 7.25684C74.5544 6.11751 75.832 5.54785 77.4678 5.54785C79.0547 5.54785 80.3079 6.146 81.2275 7.34229C82.1553 8.53857 82.6191 10.2028 82.6191 12.335V12.5425ZM80.3608 12.2861C80.3608 10.7969 80.0435 9.62093 79.4087 8.7583C78.7739 7.89567 77.9032 7.46436 76.7964 7.46436C75.4292 7.46436 74.4038 8.07064 73.7202 9.2832V15.5942C74.3957 16.7987 75.4292 17.4009 76.8208 17.4009C77.9032 17.4009 78.7617 16.9736 79.3965 16.1191C80.0394 15.2565 80.3608 13.9788 80.3608 12.2861ZM95.6904 15.4966C95.6904 14.8862 95.4585 14.4142 94.9946 14.0806C94.5389 13.7388 93.7373 13.4458 92.5898 13.2017C91.4505 12.9575 90.5431 12.6646 89.8677 12.3228C89.2004 11.981 88.7039 11.5741 88.3784 11.1021C88.061 10.63 87.9023 10.0685 87.9023 9.41748C87.9023 8.33512 88.3581 7.4196 89.2695 6.6709C90.1891 5.9222 91.361 5.54785 92.7852 5.54785C94.2826 5.54785 95.4951 5.93441 96.4229 6.70752C97.3587 7.48063 97.8267 8.4694 97.8267 9.67383H95.5562C95.5562 9.05534 95.2917 8.5223 94.7627 8.07471C94.2419 7.62712 93.5827 7.40332 92.7852 7.40332C91.9632 7.40332 91.3203 7.58236 90.8564 7.94043C90.3926 8.2985 90.1606 8.76644 90.1606 9.34424C90.1606 9.88949 90.3763 10.3005 90.8076 10.5771C91.2389 10.8538 92.0161 11.1183 93.1392 11.3706C94.2703 11.6229 95.1859 11.924 95.8857 12.2739C96.5856 12.6239 97.1024 13.047 97.436 13.5435C97.7778 14.0317 97.9487 14.6299 97.9487 15.3379C97.9487 16.5179 97.4767 17.466 96.5327 18.1821C95.5887 18.8901 94.3639 19.2441 92.8584 19.2441C91.8005 19.2441 90.8646 19.057 90.0508 18.6826C89.237 18.3083 88.5981 17.7874 88.1343 17.1201C87.6785 16.4447 87.4507 15.7163 87.4507 14.9351H89.709C89.7497 15.6919 90.0508 16.2941 90.6123 16.7417C91.182 17.1812 91.9307 17.4009 92.8584 17.4009C93.7129 17.4009 94.3965 17.23 94.9092 16.8882C95.43 16.5382 95.6904 16.0744 95.6904 15.4966Z" fill="white"/>
</svg>
